<?xml version="1.0" standalone="no"?>
<!DOCTYPE svg PUBLIC "-//W3C//DTD SVG 20010904//EN"
 "http://www.w3.org/TR/2001/REC-SVG-20010904/DTD/svg10.dtd">
<svg version="1.0" xmlns="http://www.w3.org/2000/svg"
 width="260.000000pt" height="260.000000pt" viewBox="0 0 260.000000 260.000000"
 preserveAspectRatio="xMidYMid meet">
<metadata>
Created by potrace 1.11, written by Peter Selinger 2001-2013
</metadata>
<g transform="translate(0.000000,260.000000) scale(0.100000,-0.100000)"
fill="#000000" stroke="none">
<path d="M599 1956 c-3 -2 -5 -123 -1 -133 2 -7 23 -15 46 -18 24 -4 47 -10
53 -13 6 -4 43 -63 82 -132 40 -69 77 -134 83 -145 7 -11 67 -117 135 -235
l123 -215 0 -217 c0 -119 -3 -219 -7 -221 -5 -3 -41 -8 -80 -12 -40 -4 -81 -8
-90 -10 -10 -2 -21 -4 -24 -4 -3 -1 -6 -30 -6 -66 l-1 -65 392 0 392 0 0 64
c1 70 0 71 -61 75 -22 1 -65 5 -95 9 l-55 7 -1 220 -1 220 47 90 c26 50 71
135 100 190 29 55 69 132 90 170 21 39 60 111 87 160 26 50 53 98 58 107 6 9
31 19 59 22 27 4 53 9 58 12 4 3 8 35 8 72 l0 68 -252 -1 -253 0 -3 -68 c-3
-71 -2 -72 48 -81 56 -9 100 -18 100 -20 0 -1 -36 -82 -80 -179 -146 -324
-164 -367 -172 -396 -2 -8 -15 15 -27 50 -13 35 -75 167 -138 293 -63 125
-112 230 -110 232 2 2 30 10 63 17 l59 14 1 69 0 70 -313 0 c-172 0 -313 0
-314 0z"/>
<path d="M1950 1354 l0 -109 32 -25 c17 -14 36 -29 42 -35 6 -5 51 -44 101
-85 49 -41 99 -83 109 -92 11 -10 23 -18 27 -18 4 0 9 -7 13 -15 3 -10 -28
-43 -97 -102 -121 -104 -140 -121 -190 -165 l-38 -33 3 -102 3 -101 51 46 c60
56 201 184 231 209 39 35 176 158 190 171 8 8 13 35 12 70 l0 57 -68 58 c-37
32 -92 81 -121 108 -30 27 -83 75 -119 107 -36 31 -68 59 -71 62 -3 3 -29 28
-57 54 l-53 49 0 -109z"/>
<path d="M564 1402 c-52 -49 -200 -183 -236 -214 -11 -9 -54 -48 -95 -85 -42
-37 -80 -69 -84 -71 -15 -6 -11 -130 5 -139 7 -4 51 -42 96 -83 46 -41 92 -83
104 -93 12 -10 35 -31 51 -46 17 -15 74 -66 128 -115 l97 -88 0 105 0 105 -57
49 c-32 26 -63 53 -69 58 -6 6 -35 30 -64 55 -29 25 -69 60 -89 77 -20 18 -39
33 -43 33 -5 0 -8 7 -8 15 0 8 3 15 8 15 4 0 21 12 37 28 17 15 50 43 75 63
25 20 56 47 70 59 14 12 51 43 82 68 l58 47 0 103 c0 56 -3 102 -7 102 -5 0
-31 -22 -59 -48z"/>
</g>
</svg>
