<svg width="249.14px" height="182.8px" viewBox="0 0 249.14 182.8" version="1.1" xmlns="http://www.w3.org/2000/svg" xmlns:xlink="http://www.w3.org/1999/xlink">
    <g stroke="none" stroke-width="1" fill="none" fill-rule="evenodd" transform="translate(-20.000000, 0.000000)">
        <g transform="translate(20.000000, 0.000000)">
            <g transform="translate(125.000000, 91.500000) rotate(-20.000000) translate(-125.000000, -91.500000) translate(13.000000, 35.000000)">
                <polygon fill="#F89920" points="13 56.5 0 24 76 24 76 56.5"></polygon>
                <polygon fill="#FFBE22" transform="translate(38.000000, 72.250000) scale(1, -1) translate(-38.000000, -72.250000) " points="13 88.5 0 56 76 56 76 88.5"></polygon>
                <path d="M223.995324,56.55 C223.473559,87.7778362 179.351716,113 125,113 C70.6482839,113 26.526441,87.7778362 26.0046759,56.55 L223.995324,56.55 L223.995324,56.55 Z" fill="#F0670A"></path>
                <path d="M223.99687,56.55 C223.569419,25.2761926 179.410766,0 125,0 C70.5892336,0 26.430581,25.2761926 26.0031297,56.55 L223.99687,56.55 L223.99687,56.55 Z" fill="#FFD00E"></path>
                <path d="M223.989285,56.55 C223.202471,77.2846127 179.184805,94 125,94 C70.8151947,94 26.7975285,77.2846127 26.0107154,56.55 L223.989285,56.55 L223.989285,56.55 Z" fill="#F89920"></path>
                <path d="M223.992828,56.55 C223.347807,35.7694084 179.274275,19 125,19 C70.725725,19 26.6521927,35.7694084 26.0071716,56.55 L223.992828,56.55 L223.992828,56.55 Z" fill="#FFBE22"></path>
            </g>
            <path d="M144.42863,26.4478552 C139.568857,9.64483286 134.038017,0.323346758 127.754522,0.502536432 C115.599271,0.849174021 111.512643,39.3862906 115.44624,88.7684077 C119.421464,138.67312 129.733084,176.162585 142.589446,175.82455 C150.256481,175.62296 154.573684,163.358499 156.088081,142.064165 C156.119028,141.629015 155.634658,141.930612 155.663269,141.487946 C155.663269,141.487946 155.600756,140.710156 155.312427,140.691521 C154.769158,140.656408 153.682621,140.586183 153.682621,140.586183 C152.34641,161.260181 148.300616,173.173521 142.523736,173.325414 C131.95818,173.603216 121.7577,136.517816 117.938346,88.5698957 C114.181941,41.4122292 118.226133,3.27527878 127.825787,3.00152049 C132.369344,2.87194952 137.459225,11.4548917 141.965236,26.9304672 C141.965236,26.9304672 144.431108,26.4564217 144.42863,26.4478552 Z" fill="#F0670A" fill-rule="nonzero"></path>
            <path d="M84.1989136,14.4575721 C73.8454756,20.8353949 89.574911,56.2528304 117.672564,97.0522001 C146.067566,138.283337 173.742422,165.594356 184.707341,158.873428 C190.835473,155.117201 189.115195,143.714859 181.224659,126.500825 C180.936995,125.873257 180.195054,125.59771 179.567486,125.885373 C178.939919,126.173037 178.664372,126.914978 178.952035,127.542545 C186.287831,143.546355 187.865766,154.005216 183.400866,156.741968 C174.389727,162.26533 147.013153,135.248671 119.731535,95.6342307 C92.8995598,56.672696 77.3334576,21.6230321 85.5101228,16.5861234 C89.8526601,13.9110764 100.179376,20.3647618 113.825175,34.306532 C113.976993,34.4616433 114.851142,35.366173 115.045101,35.4252281 C115.468071,35.5540102 115.254587,34.6565684 115.59284,34.3254963 C116.086204,33.8426059 116.094694,33.0511952 115.611804,32.5578311 C101.034022,17.6638631 90.0933935,10.8265127 84.1989136,14.4575721 Z" fill="#F0670A" fill-rule="nonzero"></path>
        </g>
    </g>
</svg>